Inn of Evil (Inochi b么 ni fur么) (1971)
 
http://www.imdb.com/title/tt0067249/

The story takes place in feudal Japan, when any commerce with the rest of the world was strictly prohibited. An idealist suddenly appears in an isolated inn (the one that the title refers to), the head-quarters of a group of smugglers, with stolen money intended to ransom his loved one who is forced to work in a brothel.

Subtitles: EN, RO

General
Complete name                            : Inn of Evil (Inochi b么 ni fur么) (1971).avi
Format                                   : AVI
Format/Info                              : Audio Video Interleave
File size                                : 902 MiB
Duration                                 : 2h 1mn
Overall bit rate                         : 1 040 Kbps
Writing application                      : VirtualDubMod 1.5.10.2 Fr | www.trad-fr.com ||  (build 2540/release)
Writing library                          : VirtualDubMod build 2540/release

Video
ID                                       : 0
Format                                   : MPEG-4 Visual
Format settings, BVOP                    : 1
Format settings, QPel                    : No
Format settings, GMC                     : No warppoints
Format settings, Matrix                  : Default (H.263)
Muxing mode                              : Packed bitstream
Codec ID                                 : DX50
Codec ID/Hint                            : DivX 5
Duration                                 : 2h 1mn
Bit rate                                 : 900 Kbps
Width                                    : 640 pixels
Height                                   : 280 pixels
Display aspect ratio                     : 2.25:1
Frame rate                               : 29.970 fps
Color space                              : YUV
Chroma subsampling                       : 4:2:0
Bit depth                                : 8 bits
Scan type                                : Progressive
Compression mode                         : Lossy
Bits/(Pixel*Frame)                       : 0.168
Stream size                              : 781 MiB (87%)
Writing library                          : DivX 6.8.0 (UTC 2007-12-04)

Audio
ID                                       : 1
Format                                   : MPEG Audio
Format version                           : Version 1
Format profile                           : Layer 3
Codec ID                                 : 55
Codec ID/Hint                            : MP3
Duration                                 : 2h 1mn
Bit rate mode                            : Constant
Bit rate                                 : 128 Kbps
Channel(s)                               : 2 channels
Sampling rate                            : 44.1 KHz
Compression mode                         : Lossy
Stream size                              : 111 MiB (12%)
Alignment                                : Split accross interleaves
Interleave, duration                     : 33 ms (1.00 video frame)
Interleave, preload duration             : 500 ms
Writing library                          : LAME3.96r
Encoding settings                        : -m s -V 4 -q 3 -lowpass 17.5 -b 128

